<svg class="svg-icon" style="width: 1.0048828125em; height: 1em;vertical-align: middle;fill: currentColor;overflow: hidden;" viewBox="0 0 1029 1024" version="1.1" xmlns="http://www.w3.org/2000/svg"><path d="M0 511.654754C169.1706 342.484154 340.412677 171.242077 511.654754 0c27.61969 29.000674 56.620364 58.691841 91.144976 95.28793C485.416049 209.909643 365.270398 327.293324 245.124747 443.986514c1.380984 2.071477 2.071477 3.452461 3.452461 5.523938 258.934592 0 517.869184 0 779.565745 0 0 42.810519 0 83.549562 0 127.050573-258.934592 0-517.869184 0-776.803776 0-1.380984 2.071477-2.071477 4.142953-3.452461 6.21443 118.074174 118.764666 235.457856 237.529332 352.841537 356.293999-30.381659 29.691167-60.072825 58.001349-87.692515 84.240054C343.865138 855.519892 171.242077 683.587323 0 511.654754z"  /></svg>